<?xml version="1.0" encoding="UTF-8" standalone="no"?>
<svg
   xmlns:dc="http://purl.org/dc/elements/1.1/"
   xmlns:cc="http://creativecommons.org/ns#"
   xmlns:rdf="http://www.w3.org/1999/02/22-rdf-syntax-ns#"
   xmlns:svg="http://www.w3.org/2000/svg"
   xmlns="http://www.w3.org/2000/svg"
   xmlns:sodipodi="http://sodipodi.sourceforge.net/DTD/sodipodi-0.dtd"
   xmlns:inkscape="http://www.inkscape.org/namespaces/inkscape"
   version="1.1"
   viewBox="0 0 2800 2800"
   id="svg186"
   sodipodi:docname="lampballoon.svg"
   inkscape:version="1.0.1 (3bc2e813f5, 2020-09-07)">
  <metadata
     id="metadata192">
    <rdf:RDF>
      <cc:Work
         rdf:about="">
        <dc:format>image/svg+xml</dc:format>
        <dc:type
           rdf:resource="http://purl.org/dc/dcmitype/StillImage" />
        <dc:title></dc:title>
      </cc:Work>
    </rdf:RDF>
  </metadata>
  <defs
     id="defs190">
    <clipPath
       clipPathUnits="userSpaceOnUse"
       id="clipPath206">
      <rect
         style="fill:#ececec;stroke-width:1.14513"
         id="rect208"
         width="2791.6189"
         height="821.14606"
         x="3.6934204"
         y="1052.3937"
         transform="rotate(0.2010811)" />
    </clipPath>
  </defs>
  <sodipodi:namedview
     pagecolor="#ffffff"
     bordercolor="#666666"
     borderopacity="1"
     objecttolerance="10"
     gridtolerance="10"
     guidetolerance="10"
     inkscape:pageopacity="0"
     inkscape:pageshadow="2"
     inkscape:window-width="1920"
     inkscape:window-height="1017"
     id="namedview188"
     showgrid="false"
     inkscape:zoom="0.29535714"
     inkscape:cx="1400"
     inkscape:cy="1129.1415"
     inkscape:window-x="-8"
     inkscape:window-y="-8"
     inkscape:window-maximized="1"
     inkscape:current-layer="svg186" />
  <g
     transform="matrix(0.99241404,-0.00269678,0.00348292,0.76841372,12.332888,1350.1804)"
     id="g104">
    <rect
       y="-1747.6"
       width="2800"
       height="2800"
       fill="#008080"
       id="rect102"
       x="0"
       clip-path="url(#clipPath206)" />
  </g>
  <path
     d="m1019.7 1643.5c0.091 8.8645 1.5334 17.605 3.5313 26.219-17.042 12.375-34.083 24.75-51.125 37.125-1.2939-5.5382-3.8023-23.254-4.2722-28.923-4.6876 0.3354-11.202-0.7177-8.5001 5.8125 0.16843 1.2438 1.9982 14.565 2.1948 15.804 8.4942 53.548 43.143 102.66 92.39 126.12 50.12 24.545 108.27 24.367 162.44 16.562 65.452-8.5324 128.89-29.395 192.21-48.434 9.9574-2.8606 20.005-5.7447 30.102-8.3155 3.5249-0.5448 9.5206-2.675 14.174-3.4519 42.872-10.168 90.036-13.445 130.95 5.3985 44.405 19.672 76.185 58.291 105.87 95.512 37.475 47.238 67.314 100.43 107.14 145.91 24.767 28.292 57.384 52.128 95.7 56.659 42.385 5.6869 84.014-8.6505 122.61-24.759 53.732-20.636 108.4-41.083 165.61-48.585 33.642-4.2864 69.329-0.5178 98.644 17.569 25.599 15.721 47.907 36.168 71.95 54.212 5.3348-4.689 6.6962-8.8713-0.7182-12.019-2.4362-3.7729-15.004-7.6989-9.774-11.356 19.3-14.24 38.599-28.479 57.898-42.719 6.2917 4.9374 12.582 9.876 18.875 14.813 5.3347-4.689 6.6963-8.8716-0.7187-12.018-7.9372-5.9847-15.434-12.54-22.845-17.968-29.581-22.609-57.79-49.669-94.655-59.327-12.022-3.2414-24.139-5.4957-36.031-5.3124-49.563-1.0408-97.671 14.076-144.16 29.562-32.427 10.701-63.638 24.565-95.828 35.741-29.908 9.6065-62.425 14.772-93.485 6.7905-36.976-9.3588-65.688-37.218-88.81-66.314-39.009-49.857-71.08-105.16-112.61-153.27-28.171-33.674-61.172-65.81-103.59-80.183-43.313-15.429-90.84-9.3053-134.43 1.8016-19.017 4.697-37.69 10.377-56.438 16.031-9.6421 2.9201-21.483 6.6358-32.025 9.749-69.807 21.036-142.3 38.692-215.88 36.114-44.158-1.9034-90.709-14.053-122.07-46.863-21.81-22.761-34.859-54.028-35.344-85.594-2.1455 0.9527-10.315-2.2705-9 1.9063zm6.75 37.719c5.8835 18.058 15.423 34.902 28.125 48.938-18.093 12.907-36.36 26.972-54.344 39.156-11.742-16.055-20.246-33.98-25.75-53 17.094-12.438 34.187-24.875 51.281-37.312 0.2292 0.7396 0.4583 1.4792 0.6875 2.2187zm539.62 28.844c14.394-0.079 28.783 1.3667 42.688 4.875-21.823 17.219-43.646 34.438-65.469 51.656-28.619-4.1257-57.764-0.7423-85.906 5.1876 24.656-19.604 49.312-39.208 73.969-58.813 11.458-1.679 23.08-2.8259 34.719-2.9062zm-129.28 66.562c-26.084 6.704-51.74 14.837-77.531 22.625 25.719-20.792 51.438-41.583 77.156-62.375 25.213-7.6115 50.472-15.234 76.25-20.562-25.292 20.104-50.583 40.208-75.875 60.312zm183.66-58.312c22.544 7.5325 42.599 20.158 60.531 35.688-19.469 15.292-38.938 30.583-58.406 45.875-19.989-14.844-42.939-26.013-67.375-31.188 21.417-16.896 42.833-33.792 64.25-50.688l0.9545 0.2983 0.045 0.014zm-559.25 18.719c17.963 17.306 40.665 29.232 64.5 36.281l-63.188 46.531c-21.834-9.8896-41.524-24.644-56.562-43.156 18.508-13.123 36.274-27.003 55.25-39.656zm275.28 69.031c-24.372 7.0698-49.108 13.776-73.969 18.938 25.208-20.031 50.417-40.062 75.625-60.094 25.364-6.1161 50.346-13.447 75.312-20.969-25.656 20.708-51.312 41.417-76.969 62.125zm351.62-45.562c16.117 15.179 30.465 31.938 44.5 49.156-18.562 14.448-37.125 28.896-55.688 43.344-14.574-16.898-29.65-33.584-47-47.469l57.813-45.375zm-444.78 68.281c-25.354 4.5732-50.888 7.8905-76.656 8.9374 23.531-18.635 47.063-37.271 70.594-55.906 27.08-2.3034 53.972-6.5587 80.562-12.281-24.833 19.75-49.667 39.5-74.5 59.25zm-105.06-52.125c27.169 6.3129 55.295 7.6619 83.125 6.25l-69.438 54.969c-27.132-0.3718-54.375-4.2426-79.688-14 21.531-15.854 43.062-31.708 64.594-47.562l0.9713 0.2375zm601.22 41.687c11.751 15.044 22.854 30.393 33.812 46.063-18.177 14.114-36.354 28.229-54.531 42.344-11.6-16.064-23.427-31.66-36.094-46.875 18.51-14.385 37.021-28.771 55.531-43.156 0.4271 0.5417 0.8542 1.0834 1.2813 1.625zm42.625 58.75c10.491 15.24 20.915 30.464 31.687 45.5-18.167 14.115-36.333 28.229-54.5 42.344-11.792-16.911-23.306-34.011-35.281-50.781 18.146-14.115 36.292-28.229 54.438-42.344 1.2188 1.7604 2.4375 3.5208 3.6563 5.2812zm39.687 56.469c10.544 14.055 21.562 27.934 33.844 40.469-18.833 14.614-37.667 29.229-56.5 43.844-12.445-14.55-23.686-29.831-34.656-45.5 18.208-14.156 36.417-28.312 54.625-42.469 0.8958 1.2187 1.7916 2.4374 2.6874 3.6562zm433.56 13.344c5.3271-0.017 10.662 0.098 15.969 0.5937-23.667 18.062-47.333 36.125-71 54.188-24.406 0.7805-48.46 5.5134-72.094 11.469 25.656-20.167 51.312-40.333 76.969-60.5 16.546-3.3159 33.261-5.5307 50.156-5.75zm30.156 2.4374c21.391 3.6719 41.472 13.566 58.906 26.188-20.625 15.219-41.25 30.437-61.875 45.656-20.446-11.863-43.759-18.44-67.437-19.406 23-17.563 46-35.125 69-52.688l0.9845 0.1751 0.4217 0.075zm-179.81 70.063c-27.466 8.0981-54.37 17.778-81.125 27.969 27.553-21.895 54.694-44.533 82.503-65.965 25.557-9.131 51.384-17.639 77.747-24.192l-79.125 62.188zm-243.44-38.906c13.113 12.454 27.864 23.448 44.469 30.844-20.7 15.684-41.386 32.226-62.094 47.375-14.836-9.2538-27.759-21.227-39.469-34.031 19.026-14.651 38.093-29.926 57.094-44.188zm490.41 1.1875c12.95 10.081 25.827 20.258 38.75 30.375-20.114 14.833-40.229 29.667-60.344 44.5-13.344-10.233-26.118-21.231-40.219-30.312 20.375-15.031 40.75-30.062 61.125-45.094zm-355.34 76.062c-24.028 10.538-49.889 17.808-76.219 19.719 24.594-19.198 49.187-38.396 73.781-57.594 29.513-5.1209 56.82-17.671 84.656-28.219-27.406 22.031-54.812 44.062-82.219 66.094zm-80.125-42.156c19.093 6.834 39.765 8.6497 59.938 6.75-23.615 18.438-47.229 36.875-70.844 55.313-18.447-0.6144-36.57-5.2716-52.906-13.938l63-48.406z"
     color="#000000"
     fill="#520"
     style="block-progression:tb;text-indent:0;text-transform:none"
     id="path106" />
  <g
     transform="matrix(1.2107 0 0 1.2107 -764.03 -500.58)"
     id="g168">
    <path
       d="m1323.2 1810.7s35.957 41.92 65.775 36.89c29.818-5.0306 35.08-14.253 63.144-46.112-57.882 3.3536-128.92 9.2225-128.92 9.2225z"
       fill="#1a1a1a"
       id="path108" />
    <g
       transform="matrix(.87125 0 0 .87179 194.82 341.14)"
       id="g118">
      <path
         d="m1507.7 1622.4c3.2235 36.142-60.568 61.981-140.42 69.253s-145.94-3.874-148.75-42.919c-2.7693-38.494 60.568-61.981 140.42-69.253s145.17 2.7532 148.75 42.919z"
         fill="#1a1a1a"
         id="path110" />
      <path
         d="m1503 1621.9c3.1202 35.127-58.629 60.24-135.92 67.308-77.295 7.0677-141.27-3.7653-143.99-41.714-2.6806-37.413 58.629-60.241 135.92-67.308 77.295-7.0678 140.52 2.6759 143.99 41.714z"
         fill="#333"
         id="path112" />
      <path
         d="m1234.7 1647.7c1.3771-3.0539 4.9977-5.9579 16.712-1.7391 11.714 4.2187 27.17 11.407 88.968 8.8417 86.708-3.6 101.3-15.208 120.2-22.623 10.719-4.2055 18.164-4.4401 20.676 1.2561s4.5776 18.027-34.097 31.619c-45.024 15.825-122.44 24.481-163.74 17.823-41.297-6.6581-55.527-20.089-48.723-35.178z"
         fill="#4d4d4d"
         id="path114" />
      <path
         d="m1242.4 1657.7c-0.7349 3.2402 0.9215 7.7255 16.424 13.407 24.239 8.8833 61.687 9.5092 80.312 6.899 6.4014-0.897 8.9862-3.6422 9.532-5.7146 1.0423-3.957-1.4968-9.3076-12.082-8.8247-23.705 1.0816-36.611-0.1315-54.816-2.3476-23.978-2.9187-36.943-14.118-39.37-3.4189z"
         fill="#666"
         id="path116" />
    </g>
    <g
       transform="matrix(.91719 0 0 .92639 125.55 209.92)"
       id="g128">
      <path
         d="m1507.7 1622.4c3.2235 36.142-60.568 61.981-140.42 69.253s-145.94-3.874-148.75-42.919c-2.7693-38.494 60.568-61.981 140.42-69.253s145.17 2.7532 148.75 42.919z"
         fill="#1a1a1a"
         id="path120" />
      <path
         d="m1503 1621.9c3.1202 35.127-58.629 60.24-135.92 67.308-77.295 7.0677-141.27-3.7653-143.99-41.714-2.6806-37.413 58.629-60.241 135.92-67.308 77.295-7.0678 140.52 2.6759 143.99 41.714z"
         fill="#333"
         id="path122" />
      <path
         d="m1234.7 1647.7c1.3771-3.0539 4.9977-5.9579 16.712-1.7391 11.714 4.2187 27.17 11.407 88.968 8.8417 86.708-3.6 101.3-15.208 120.2-22.623 10.719-4.2055 18.164-4.4401 20.676 1.2561s4.5776 18.027-34.097 31.619c-45.024 15.825-122.44 24.481-163.74 17.823-41.297-6.6581-55.527-20.089-48.723-35.178z"
         fill="#4d4d4d"
         id="path124" />
      <path
         d="m1242.4 1657.7c-0.7349 3.2402 0.9215 7.7255 16.424 13.407 24.239 8.8833 61.687 9.5092 80.312 6.899 6.4014-0.897 8.9862-3.6422 9.532-5.7146 1.0423-3.957-1.4968-9.3076-12.082-8.8247-23.705 1.0816-36.611-0.1315-54.816-2.3476-23.978-2.9187-36.943-14.118-39.37-3.4189z"
         fill="#666"
         id="path126" />
    </g>
    <g
       transform="matrix(.96114 0 0 .96114 60.446 109.77)"
       id="g138">
      <path
         d="m1507.7 1622.4c3.2235 36.142-60.568 61.981-140.42 69.253s-145.94-3.874-148.75-42.919c-2.7693-38.494 60.568-61.981 140.42-69.253s145.17 2.7532 148.75 42.919z"
         fill="#1a1a1a"
         id="path130" />
      <path
         d="m1503 1621.9c3.1202 35.127-58.629 60.24-135.92 67.308-77.295 7.0677-141.27-3.7653-143.99-41.714-2.6806-37.413 58.629-60.241 135.92-67.308 77.295-7.0678 140.52 2.6759 143.99 41.714z"
         fill="#333"
         id="path132" />
      <path
         d="m1234.7 1647.7c1.3771-3.0539 4.9977-5.9579 16.712-1.7391 11.714 4.2187 27.17 11.407 88.968 8.8417 86.708-3.6 101.3-15.208 120.2-22.623 10.719-4.2055 18.164-4.4401 20.676 1.2561s4.5776 18.027-34.097 31.619c-45.024 15.825-122.44 24.481-163.74 17.823-41.297-6.6581-55.527-20.089-48.723-35.178z"
         fill="#4d4d4d"
         id="path134" />
      <path
         d="m1242.4 1657.7c-0.7349 3.2402 0.9215 7.7255 16.424 13.407 24.239 8.8833 61.687 9.5092 80.312 6.899 6.4014-0.897 8.9862-3.6422 9.532-5.7146 1.0423-3.957-1.4968-9.3076-12.082-8.8247-23.705 1.0816-36.611-0.1315-54.816-2.3476-23.978-2.9187-36.943-14.118-39.37-3.4189z"
         fill="#666"
         id="path136" />
    </g>
    <path
       d="m1507.7 1622.4c3.2235 36.142-60.568 61.981-140.42 69.253s-145.94-3.874-148.75-42.919c-2.7693-38.494 60.568-61.981 140.42-69.253s145.17 2.7532 148.75 42.919z"
       fill="#1a1a1a"
       id="path140" />
    <path
       d="m1503 1621.9c3.1202 35.127-58.629 60.24-135.92 67.308-77.295 7.0677-141.27-3.7653-143.99-41.714-2.6806-37.413 58.629-60.241 135.92-67.308 77.295-7.0678 140.52 2.6759 143.99 41.714z"
       fill="#333"
       id="path142" />
    <path
       d="m1473.9 1610.5c1.5836 18.483-46.979 37.377-108.47 42.199-61.488 4.8226-112.62-6.2519-114.2-24.735-1.5836-18.484 46.979-37.377 108.47-42.2 61.488-4.8225 112.62 6.2518 114.2 24.735z"
       fill="#1a1a1a"
       id="path144" />
    <path
       d="m1234.7 1647.7s4.9977-5.9579 16.712-1.7391c11.714 4.2187 26.745 18.637 88.543 16.071 86.708-3.6 104.7-17.759 120.62-26.45 10.107-5.5165 18.164-7.8421 20.676-2.1459s4.5776 18.027-34.097 31.619c-45.024 15.825-122.44 24.481-163.74 17.823-41.297-6.6581-55.131-19.917-48.723-35.178z"
       fill="#4d4d4d"
       id="path146" />
    <path
       d="m1247.7 1651.7s-6.4425 1.8494-6.5699 5.1694c-0.1274 3.3201 2.1972 8.576 17.699 14.257 24.239 8.8833 61.687 9.5092 80.312 6.899 6.4014-0.897 8.9862-3.6422 9.532-5.7146 1.0423-3.957-4.0483-5.9056-14.633-5.4227-23.705 1.0816-30.006 0.2091-48.119-2.6665-27.622-4.3851-32.95-13.745-38.222-12.522z"
       fill="#666"
       id="path148" />
    <path
       d="m1526.2 1410-1.8917 7.3626-7.5214-2.5402c-3.5106-1.1923-6.6859-2.4632-9.6383-3.4015 1.1059 0.3514 2.4216 0.8692 3.6031 1.2916-15.799 62.499-26.941 134.57-24.922 197.15 3.2273 7.4706 10.597 7.3847 14.547 5.2531l-0.089-2.4112c-2.5021-63.79 9.1655-138.17 25.912-202.71zm-422.91 1.3347c66.106 106.99 121.33 228.72 121.33 228.72l0.8106 1.7654c5.6295 0.6795 11.739-1.923 11.34-9.6237-0.06-0.2257-0.1915-0.3369-0.3059-0.5811-3.6355-7.9721-53.832-117.29-116.11-219.5-2.9378 0.7918-5.8758 1.5583-8.8725 2.368l-5.3597 1.421z"
       color="#000000"
       style="block-progression:tb;text-indent:0;text-transform:none"
       id="path150" />
    <path
       d="m1280.5 513.53c-67.484-0.24497-132.55 13.721-186.82 43.487v0.043h-0.045c-206.07 115.62-247.41 277.19-224.02 421.57s109.69 272 157.68 326.33c25.178 28.504 51.301 66.409 75.98 106.35l2.8375 4.5641 5.3597-1.4209c7.5065-2.0282 14.573-4.0378 22.429-5.9419 13.124-3.1809 26.997-6.2059 41.481-8.9988 14.488-2.7939 29.609-5.3809 45.219-7.535 7.7905-1.0751 15.71-2.0108 23.78-2.885l0.2702-0.043c7.9607-0.8591 16.048-1.61 24.231-2.239 8.2823-0.6364 16.639-1.1392 25.086-1.5071 8.469-0.3685 17.013-0.6183 25.627-0.6889 8.6075-0.07 17.303 0.044 26.077 0.3015 8.7503 0.2577 17.561 0.7173 26.438 1.335 8.8701 0.6167 17.803 1.4049 26.753 2.4112 8.9668 1.008 17.985 2.1929 26.978 3.6167 8.9939 1.4239 18.016 3.0723 27.068 4.9514 9.0427 1.8773 18.074 3.9733 27.113 6.3293 9.0501 2.3588 18.099 4.9705 27.113 7.8365 2.9524 0.9384 6.1277 2.2092 9.6383 3.4014l7.5213 2.5403 1.8918-7.3627c32.356-124.69 88.311-236.95 117.91-281.25 165.64-247.9 26.66-542.88-241.32-599.74-0.075-0.0185-0.1511-0.0247-0.2253-0.043-40.355-10.021-81.638-15.268-122.05-15.414z"
       color="#000000"
       fill="#ff0"
       style="block-progression:tb;text-indent:0;text-transform:none"
       id="path152" />
    <path
       d="m1246.2 1388.9c-0.5282 0.056-1.0474 0.098-1.5745 0.1549l-0.2839 0.026c-4.1852 0.4533-8.3341 0.9482-12.441 1.4455 0.2184 2.6705 0.4331 5.2905 0.6453 8.0272 5.9778 77.149 26.264 148.08 38.665 198.36 4.2846-1.5356 8.744-2.9761 13.422-4.3363-11.998-49.196-31.836-118.89-37.736-195.03-0.2288-2.9514-0.4623-5.7696-0.6969-8.6468z"
       color="#000000"
       style="block-progression:tb;text-indent:0;text-transform:none"
       id="path154" />
    <path
       d="m1420.6 912.85c-8.513 0.0353-17.226 1.1914-25.762 3.3154-11.669 2.9035-23.078 7.7074-33.554 13.907-2.484-1.591-5.0288-3.1126-7.6566-4.4779-21.728-11.289-48.301-15.674-69.585-7.9225-20.292 7.39-42.299 19.605-59.226 37.546-2.8226-3.3704-5.748-6.63-8.9176-9.6878-13.486-13.01-30.388-22.868-49.768-23.294-19.38-0.42548-40.138 8.869-60.352 30.829-40.02 43.476-40.744 85.926-23.06 121.98 17.685 36.054 52.163 66.541 81.475 92.228 38.198 33.474 56.883 95.198 67.783 223.29 4.0298-0.4901 8.1113-0.9345 12.206-1.3779 0.6997-0.076 1.4154-0.1413 2.1169-0.2153-10.946-128.79-29.492-194.32-72.332-231.86-29.23-25.615-62.272-55.476-78.187-87.922s-16.303-66.632 20.853-107c18.374-19.961 34.749-26.495 49.182-26.179 14.433 0.31689 28.004 7.8092 39.814 19.203 3.4827 3.36 6.7383 7.1004 9.8184 10.98-10.131 14.052-17.094 31.039-18.466 51.367-0.9318 13.808 0.8173 24.706 4.7741 32.939 3.9568 8.2328 10.623 14.057 18.646 15.199 8.0227 1.1424 16-2.5707 21.934-8.9558 5.933-6.3851 10.367-15.557 12.746-27.384 2.125-10.564-1.6337-23.99-8.4672-39.225-3.4778-7.7536-7.9333-15.804-13.196-23.552 15.215-17.196 35.971-28.833 55.758-36.039 15.55-5.6632 38.945-2.5238 57.559 7.1474 0.6121 0.31802 1.1569 0.70363 1.7566 1.0334-14.163 11.175-25.238 25.481-30.221 42.153-4.7271 15.818-3.7686 28.013 2.9276 36.082 6.6961 8.0683 17.85 9.8931 27.969 8.0086 10.118-1.8843 20.186-7.182 28.239-14.941 8.053-7.7587 14.11-18.225 14.638-30.312 0.6872-15.767-7.0632-29.508-18.691-40.301 7.9793-4.2993 16.47-7.748 25.132-9.9031 7.4691-1.8585 14.937-2.8546 22.114-2.8848 7.1769-0.0302 14.047 0.87832 20.268 2.7987 12.44 3.8408 22.394 11.393 28.599 24.37 26.595 55.617 8.6259 126.61-48.281 197.5-28.749 35.813-34.582 94.104-34.364 151.86 0.111 29.312 1.9612 58.555 3.7381 84.564 3.2542 0.314 6.511 0.6666 9.7735 1.0334 1.6042 0.1803 3.2119 0.3679 4.819 0.5596-1.8338-26.641-3.806-56.434-3.9183-86.243-0.214-56.735 6.8226-112.77 31.392-143.38 58.856-73.317 79.48-149.86 49.948-211.62-7.8265-16.367-21.513-26.875-37.247-31.733-7.8668-2.4289-16.213-3.5229-24.726-3.4876zm-59.586 34.359c10.568 8.9224 17.138 20.054 16.619 31.948-0.3503 8.0349-4.4155 15.371-10.449 21.184-6.0337 5.8131-14.044 9.849-20.808 11.109-6.7637 1.2598-11.305 0.036-13.872-3.057-2.567-3.0931-4.448-10.198-0.4053-23.724 4.3228-14.464 15.165-27.414 28.915-37.46zm-136.92 31.345c3.5479 5.6677 6.776 11.43 9.278 17.007 6.2045 13.832 8.4041 27.052 7.5664 31.216-2.0057 9.9713-5.709 16.902-9.368 20.84s-6.7258 4.7599-9.0077 4.435-5.1355-1.9808-7.7017-7.3197c-2.5658-5.3389-4.3352-14.125-3.5128-26.308v-0.043c1.0483-15.431 5.7338-28.594 12.746-39.828z"
       color="#000000"
       fill="#f60"
       style="block-progression:tb;text-indent:0;text-transform:none"
       id="path156" />
    <path
       d="m1312 1652.6s7.6459-38.888-20.88-67.345c-28.526-28.457-57.052-82.998-3.7208-118.57-18.604 30.828-13.781 54.635-6.1027 68.033 15.25 26.612 27.976 27.922 27.976 27.922s-18.153-48.528 22.776-47.343c40.928 1.1858 11.162 47.428 11.162 47.428s49.61-10.671 83.098-85.37c-2.4805 45.056-39.688 86.555-53.331 101.97-13.643 15.414 12.482 71.128 12.482 71.128s-42.378 5.1727-73.459 2.1459z"
       fill="#f00"
       id="path158" />
    <path
       d="m1051.4 1289.5s-326.24-378.96-49.112-633.84c31.572 43.597 91.208 57.012 91.208 57.012s-263.1 154.27-42.096 576.83z"
       fill="#fff"
       id="path160" />
    <path
       d="m1041.8 624.6s35.957 47.789 93.839 58.689c71.914-39.405 115.76-57.85 115.76-57.85s-9.5847-69.037-94.389-65.624c-56.128 18.445-115.21 64.786-115.21 64.786z"
       fill="#fff"
       id="path162" />
    <path
       d="m1502 597.86s161.37 110.67 175.4 248.17c14.032 137.5-45.604 228.05-80.684 264.94s-77.176-16.768-14.032-117.38c63.144-100.61 77.176-258.23-80.684-395.73z"
       fill="#fff"
       id="path164" />
    <path
       d="m1390.5 1387.8c1.5342 22.276 2.865 41.964 2.865 56.501 0 33.979 3.3742 79.056 4.3363 121.21 0.7645 33.486 0.8075 65.612-4.0007 87.397 2.0011 3.8275 12.498 3.4248 14.893-2.7618 4.4128-23.499 4.2236-53.704 3.5103-84.945-0.9731-42.64-4.3105-87.806-4.3105-120.9 0-14.712-1.2526-33.722-2.7102-54.9-2.0586-0.2502-4.1148-0.4917-6.1689-0.7227-2.8123-0.3162-5.6068-0.6029-8.4144-0.8776z"
       color="#000000"
       style="block-progression:tb;text-indent:0;text-transform:none"
       id="path166" />
  </g>
  <path
     d="m 730.42952,1751.0698 c 0,0 -379.64,61.965 -607.65,38.728 -27.778004,-6.6391 -28.936004,-21.024 -25.463004,-27.663 3.472304,-6.639 33.566004,-16.598 50.927004,-7.7455 -18.519,-17.704 -4.6297,-36.515 9.2594,-40.941 13.889,-4.426 24.306,-3.3195 24.306,-3.3195 0,0 -43.982,-33.195 -4.6297,-67.497 39.353,-34.302 70.604,15.491 70.604,15.491 0,0 -20.834,-66.39 49.77,-94.053 70.604,-27.663 125,21.024 128.48,59.752 3.4723,38.728 -11.574,67.497 -11.574,67.497 0,0 23.149,-19.917 49.77,-8.852 26.621,11.065 16.204,32.089 10.417,43.154 16.204,-17.704 35.88,-14.385 40.51,-5.5326 4.6297,8.8521 4.6297,19.917 -2.3149,28.769 16.204,4.426 150.47,13.278 217.6,2.213 z"
     fill="#ffffff"
     id="path170" />
  <path
     d="m 653.87542,1736.5928 c 0,0 -287.65,46.951 -460.42,29.344 -21.048,-5.0305 -21.925,-15.93 -19.294,-20.96 2.631,-5.0304 25.433,-12.576 38.588,-5.8688 -14.032,-13.415 -3.508,-27.668 7.0159,-31.021 10.524,-3.3536 18.417,-2.5152 18.417,-2.5152 0,0 -33.326,-25.152 -3.508,-51.143 29.818,-25.991 53.497,11.738 53.497,11.738 0,0 -15.786,-50.304 37.711,-71.265 53.497,-20.961 94.715,15.93 97.347,45.274 2.631,29.344 -8.7701,51.143 -8.7701,51.143 0,0 17.54,-15.091 37.711,-6.7072 20.171,8.384 12.278,24.314 7.8929,32.698 12.278,-13.415 27.187,-10.899 30.695,-4.1921 3.508,6.7073 3.508,15.091 -1.754,21.799 12.278,3.3536 114.01,10.061 164.88,1.6768 z"
     fill="#aaffee"
     id="path172" />
  <path
     d="m2790.1 2533.3s-830.32 74.636-1539.4 55.977c-59.709-138.08 65.316-118.67 72.573-115.37-0.6596-18.472 1.3194-36.943 34.304-44.2-49.477-25.068-94.996-137.88-34.964-203.85 60.032-65.969 186.03-48.817 214.4 23.749 10.555-28.367 42.22-32.325 55.414-25.728-3.2984-32.985 12.534-88.399 67.289-109.51 54.755-21.11 126 13.194 136.56 69.268 10.555 56.074-15.173 83.122-15.173 83.122s25.728-14.513 52.775 9.8954c27.048 24.409 18.472 62.671 4.6179 85.76 21.77-9.2358 74.546-2.6388 48.158 52.116 51.456-16.492 87.739-12.534 104.89 10.555 17.152 23.089 23.749 59.372 13.854 78.504 71.573 28.979 493.49 48.224 784.67 29.706z"
     fill="#fff"
     id="path174" />
  <path
     d="m2395.2 1254.9s-54.493 11.274-118.38 24.428c-63.888 13.153-390.84 93.953-745.99 45.097-35.702-7.5163-16.912-33.823 3.7581-33.823-20.67-26.307-1.8791-46.976 11.274-50.735-28.186-35.702-56.372-88.316-9.3953-135.29 46.976-46.976 131.53-58.251 172.87-20.67 41.339 37.581 26.307 75.162 26.307 75.162s46.976-20.67 52.614 22.549c22.549-16.912 48.855 3.758 52.614 30.065 9.3953-1.8791 0-9.3952 17.851-21.374 17.851-11.979 78.748-12.981 94.028 34.188 15.28 47.168-13.287 70.618-13.287 70.618s135.75 0.2641 238.5-12.156c100.46-12.143 174.23-25.822 217.23-28.058z"
     fill="#fff"
     id="path178" />
  <path
     d="m2337.7 1264.4s-47.412 9.8093-103 21.254c-55.586 11.444-340.06 81.745-649.05 39.237-31.063-6.5396-14.714-29.428 3.2698-29.428-17.984-22.888-1.6349-40.872 9.8093-44.142-24.523-31.063-49.047-76.84-8.1745-117.71 40.872-40.872 114.44-50.682 150.41-17.984 35.968 32.698 22.888 65.396 22.888 65.396s40.872-17.984 45.777 19.619c19.619-14.714 42.507 3.2697 45.777 26.158 8.1745-1.6349 0-8.1744 15.532-18.597 15.532-10.422 68.516-11.294 81.81 29.746s-11.56 61.442-11.56 61.442 118.11 0.2298 207.51-10.576c87.408-10.565 151.59-22.467 189-24.412z"
     fill="#afe"
     id="path180" />
  <path
     d="m2522 426.16s-442.83 72.279-708.81 45.175c-32.402-7.7443-33.753-24.524-29.702-32.268 4.0504-7.7441 39.153-19.36 59.404-9.0348-21.602-20.651-5.4003-42.593 10.801-47.756 16.201-5.1628 28.352-3.8721 28.352-3.8721s-51.304-38.721-5.4003-78.733c45.904-40.012 82.356 18.07 82.356 18.07s-24.302-77.442 58.055-109.71c82.356-32.268 145.81 24.523 149.86 69.698 4.0503 45.175-13.501 78.733-13.501 78.733s27.002-23.233 58.055-10.326c31.052 12.907 18.901 37.43 12.151 50.337 18.902-20.651 41.853-16.779 47.254-6.4536 5.4003 10.326 5.4003 23.233-2.7001 33.558 18.902 5.1627 175.51 15.488 253.82 2.5814z"
     fill="#fff"
     id="path182" />
  <path
     d="m2466.1 432.99s-368.5 60.146-589.82 37.592c-26.963-6.4443-28.087-20.407-24.716-26.851 3.3705-6.4442 32.581-16.11 49.433-7.5182-17.976-17.185-4.4938-35.443 8.9878-39.74 13.482-4.2961 23.593-3.2221 23.593-3.2221s-42.692-32.221-4.4938-65.517c38.198-33.295 68.532 15.037 68.532 15.037s-20.222-64.443 48.31-91.294 121.34 20.407 124.71 57.998c3.3704 37.592-11.235 65.517-11.235 65.517s22.47-19.333 48.31-8.5923c25.84 10.74 15.729 31.147 10.111 41.888 15.729-17.185 34.828-13.963 39.322-5.3703 4.4938 8.5924 4.4938 19.333-2.2469 27.925 15.729 4.2961 146.05 12.888 211.21 2.1481z"
     fill="#afe"
     id="path184" />
</svg>
